<svg class="svg-icon" style="width: 1em; height: 1em;vertical-align: middle;fill: currentColor;overflow: hidden;" viewBox="0 0 1024 1024" version="1.1" xmlns="http://www.w3.org/2000/svg"><path d="M512 192C298.666667 192 115.2 324.266667 42.666667 512c72.533333 187.733333 256 320 469.333333 320 213.333333 0 396.8-132.266667 469.333333-320C908.8 324.266667 725.333333 192 512 192zM512 725.333333c-119.466667 0-213.333333-93.866667-213.333333-213.333333s93.866667-213.333333 213.333333-213.333333c119.466667 0 213.333333 93.866667 213.333333 213.333333S631.466667 725.333333 512 725.333333zM512 384c-72.533333 0-128 55.466667-128 128s55.466667 128 128 128c72.533333 0 128-55.466667 128-128S584.533333 384 512 384z"  /></svg>